HIERARCHY
ROOT Hips
{
	OFFSET 0.000000 0.000000 0.000000 
	CHANNELS 6 Xposition Yposition Zposition Zrotation Yrotation Xrotation
	JOINT LeftUpLeg
	{
		OFFSET 1.363060 -1.794630 0.839290 
		CHANNELS 3 Zrotation Yrotation Xrotation
		JOINT LeftLeg
		{
			OFFSET 2.448110 -6.726130 0.000000 
			CHANNELS 3 Zrotation Yrotation Xrotation
			JOINT LeftFoot
			{
				OFFSET 2.562200 -7.039590 0.000000 
				CHANNELS 3 Zrotation Yrotation Xrotation
				JOINT LeftToeBase
				{
					OFFSET 0.157640 -0.433110 2.322550 
					CHANNELS 3 Zrotation Yrotation Xrotation
					End Site
					{
						OFFSET 0.000000 0.000000 0.000000 
					}
				}
			}
		}
	}
	JOINT RightUpLeg
	{
		OFFSET -1.305520 -1.794630 0.839290 
		CHANNELS 3 Zrotation Yrotation Xrotation
		JOINT RightLeg
		{
			OFFSET -2.542530 -6.985550 0.000000 
			CHANNELS 3 Zrotation Yrotation Xrotation
			JOINT RightFoot
			{
				OFFSET -2.568260 -7.056230 0.000000 
				CHANNELS 3 Zrotation Yrotation Xrotation
				JOINT RightToeBase
				{
					OFFSET -0.164730 -0.452590 2.363150 
					CHANNELS 3 Zrotation Yrotation Xrotation
					End Site
					{
						OFFSET 0.000000 0.000000 0.000000 
					}
				}
			}
		}
	}
	JOINT Spine
	{
		OFFSET 0.028270 2.035590 -0.193380 
		CHANNELS 3 Zrotation Yrotation Xrotation
		JOINT Spine1
		{
			OFFSET 0.056720 2.048850 -0.042750 
			CHANNELS 3 Zrotation Yrotation Xrotation
			JOINT Neck1
			{
				OFFSET -0.054170 1.746240 0.172020 
				CHANNELS 3 Zrotation Yrotation Xrotation
				JOINT Head
				{
					OFFSET 0.104070 1.761360 -0.123970 
					CHANNELS 3 Zrotation Yrotation Xrotation
					End Site
					{
						OFFSET 0.000000 0.000000 0.000000 
					}
				}
			}
			JOINT LeftArm
			{
				OFFSET 3.362410 1.200890 -0.311210 
				CHANNELS 3 Zrotation Yrotation Xrotation
				JOINT LeftForeArm
				{
					OFFSET 4.983000 -0.000000 -0.000000 
					CHANNELS 3 Zrotation Yrotation Xrotation
					JOINT LeftHand
					{
						OFFSET 3.483560 -0.000000 -0.000000 
						CHANNELS 3 Zrotation Yrotation Xrotation
						JOINT LeftHandIndex1
						{
							OFFSET 0.715260 -0.000000 -0.000000 
							CHANNELS 3 Zrotation Yrotation Xrotation
							End Site
							{
								OFFSET 0.000000 0.000000 0.000000 
							}
						}
					}
				}
			}
			JOINT RightArm
			{
				OFFSET -3.136600 1.374050 -0.404650 
				CHANNELS 3 Zrotation Yrotation Xrotation
				JOINT RightForeArm
				{
					OFFSET -5.241900 -0.000000 -0.000000 
					CHANNELS 3 Zrotation Yrotation Xrotation
					JOINT RightHand
					{
						OFFSET -3.444170 -0.000000 -0.000000 
						CHANNELS 3 Zrotation Yrotation Xrotation
						JOINT RightHandIndex1
						{
							OFFSET -0.622530 -0.000000 -0.000000 
							CHANNELS 3 Zrotation Yrotation Xrotation
							End Site
							{
								OFFSET 0.000000 0.000000 0.000000 
							}
						}
					}
				}
			}
		}
	}
}
MOTION
Frames: 10
Frame Time: 0.041667
3.186147 16.476802 9.697811 174.313474 -4.127175 -133.812262 -34.807613 -33.364962 -32.718827 14.270546 21.712785 75.106166 0.667044 -8.710745 -37.289120 1.466400 -7.652700 -21.664200 10.489261 43.873905 -74.246298 -5.896890 -11.861292 34.048325 -3.633907 4.521798 -46.807507 -0.889400 6.011200 -16.816900 18.778037 -7.214045 6.903588 -8.917340 -2.920217 12.258838 3.103415 -2.190394 27.325350 0.205500 0.086000 4.735100 -99.187385 -10.984916 28.951340 40.941838 -44.904432 -14.489998 0.136428 -0.097778 -5.634834 -7.125000 0.000000 0.000000 103.025861 -4.243037 13.624769 -30.268157 38.990824 -7.587469 0.395111 -3.925278 -7.685817 7.125000 0.000000 0.000000 
3.202165 16.476898 9.674886 174.616422 -4.167544 -134.125629 -34.243074 -33.500493 -34.062737 14.730896 22.000820 76.775452 0.701391 -8.728571 -37.404567 1.222300 -7.012500 -19.752300 11.444339 44.215059 -73.290174 -5.865680 -11.752012 33.555105 -3.557010 4.659894 -46.763244 -0.903100 6.056100 -16.947400 18.993510 -7.221342 7.442565 -8.874745 -2.886322 12.186553 2.983533 -2.041115 26.097100 0.200600 0.103400 5.101700 -99.369910 -10.838039 29.526871 40.933629 -44.901367 -14.550622 0.133746 -0.092536 -5.469414 -7.125000 0.000000 0.000000 102.928274 -4.130641 13.838180 -30.483949 39.263013 -7.714756 0.449417 -3.914694 -7.788224 7.125000 0.000000 0.000000 
3.218280 16.478145 9.653496 174.844119 -4.104967 -134.464892 -33.740330 -33.607772 -35.416062 15.178701 22.257222 78.359737 0.700158 -8.831149 -37.515606 1.472100 -7.667100 -21.707300 12.270279 44.556950 -72.459950 -5.842958 -11.701145 33.300812 -3.481551 4.819609 -46.713882 -0.913800 6.091000 -17.048800 18.462045 -7.194422 8.001397 -8.745299 -2.876845 11.985137 2.688747 -2.246190 27.724059 0.106500 0.049900 4.771200 -99.405005 -10.570883 30.053089 40.832263 -44.753725 -14.501776 0.121027 -0.109692 -5.237776 -7.125000 0.000000 0.000000 102.957438 -3.972544 13.769735 -30.666782 39.503494 -7.836749 0.544235 -3.908543 -7.602951 7.125000 0.000000 0.000000 
3.233051 16.481310 9.635847 175.042103 -3.985039 -134.918255 -33.346322 -33.722252 -36.710932 15.659556 22.497935 79.933314 0.829125 -8.607954 -37.516074 1.922900 -8.703600 -24.872400 13.073358 44.872657 -71.622115 -5.817620 -11.672150 33.115685 -3.364328 5.065796 -46.637442 -0.909100 6.075900 -17.004800 17.759367 -7.197813 9.005303 -8.598263 -2.854356 11.762228 2.859143 -2.548826 28.393788 0.090800 -0.043500 4.872300 -99.437979 -10.431743 30.624441 40.672170 -44.609637 -14.430351 0.120210 -0.108861 -4.990039 -7.125000 0.000000 0.000000 103.043475 -3.738368 13.787127 -30.796159 39.714498 -7.920890 0.518378 -3.907952 -7.771417 7.125000 0.000000 0.000000 
3.246192 16.483228 9.620308 175.245620 -3.864951 -135.284612 -33.015899 -33.847610 -38.022072 16.104331 22.705926 81.339145 0.993836 -8.315746 -37.559078 2.100300 -9.072000 -26.020900 13.695563 45.107567 -70.950703 -5.797278 -11.671945 33.084866 -3.234453 5.410595 -46.678713 -0.838400 5.840800 -16.323100 17.689259 -7.217899 9.701232 -8.525002 -2.851382 11.535665 3.060804 -2.675122 29.024503 0.127700 -0.055900 4.970300 -99.690935 -10.222223 30.958228 40.373463 -44.381131 -14.263817 0.109312 -0.102008 -4.575975 -7.125000 0.000000 0.000000 102.976533 -3.628337 14.011071 -30.990988 39.959824 -8.027425 0.469445 -3.889834 -8.341923 7.125000 0.000000 0.000000 
3.260676 16.483996 9.606400 175.533362 -3.817252 -135.562913 -32.535170 -34.010966 -39.448566 16.498151 22.879463 82.621649 0.984820 -8.384747 -37.504925 1.840500 -8.525700 -24.322500 14.251106 45.373247 -70.353479 -5.779241 -11.691295 33.161411 -3.143512 5.742891 -46.851532 -0.711800 5.392000 -15.030100 18.277723 -7.227473 10.012198 -8.554098 -2.850341 11.325453 3.068953 -2.715081 29.790932 0.167200 -0.046800 5.080800 -100.076395 -9.944989 31.279036 39.918298 -44.027766 -13.989608 0.100008 -0.109008 -4.091193 -7.125000 0.000000 0.000000 102.816312 -3.583081 14.203534 -31.135046 40.139070 -8.107926 0.485018 -3.871715 -8.777955 7.125000 0.000000 0.000000 
3.276886 16.486106 9.593834 175.743672 -3.798766 -135.979485 -32.127178 -34.209913 -40.752320 16.838963 23.015088 83.760800 0.847989 -8.727128 -37.377891 1.623900 -8.034400 -22.818700 14.830883 45.675443 -69.656351 -5.767452 -11.725103 33.235344 -3.119415 5.894754 -47.047118 -0.635000 5.098600 -14.189900 18.433398 -7.282912 10.736331 -8.418869 -2.850126 11.145126 2.845105 -2.715595 30.000108 0.144400 -0.065700 5.119200 -100.374933 -9.794977 31.672950 39.469967 -43.679991 -13.718924 0.104965 -0.114855 -3.724806 -7.125000 0.000000 0.000000 102.748497 -3.380960 14.293827 -31.222296 40.305552 -8.169467 0.467791 -3.873341 -8.803060 7.125000 0.000000 0.000000 
3.292329 16.487641 9.578583 175.937855 -3.761171 -136.234531 -31.820773 -34.368504 -42.071983 17.122145 23.126072 84.686534 0.781662 -8.952789 -37.378123 1.784100 -8.401000 -23.938900 15.374498 45.890472 -69.094395 -5.768340 -11.787373 33.396014 -3.125261 5.961149 -47.234235 -0.667700 5.225600 -14.553100 18.829583 -7.142816 10.154627 -8.370900 -2.832932 10.971380 2.727438 -2.624528 30.128961 0.159900 -0.027900 5.077000 -100.675922 -9.184249 31.895360 39.150851 -43.340647 -13.532932 0.113487 -0.111755 -3.295400 -7.125000 0.000000 0.000000 102.607186 -3.532973 14.411203 -31.386450 40.420611 -8.246743 0.436209 -3.871984 -8.819078 7.125000 0.000000 0.000000 
3.308156 16.487353 9.563716 176.282469 -3.791588 -136.334717 -31.272435 -34.534316 -43.636425 17.376729 23.228652 85.495113 0.801024 -8.999538 -37.451001 2.045100 -8.959400 -25.668500 16.000748 46.060053 -68.658324 -5.757405 -11.854457 33.541409 -3.100769 6.068086 -47.326822 -0.705600 5.368900 -14.963800 19.807562 -7.066944 9.424677 -8.491217 -2.811209 11.248183 2.611012 -2.328326 29.363621 0.208400 0.067500 4.921500 -101.110233 -8.652244 31.904326 38.822199 -43.012771 -13.324259 0.121726 -0.115118 -2.780786 -7.125000 0.000000 0.000000 102.388214 -3.556354 14.634164 -31.476787 40.443185 -8.276143 0.444006 -3.885601 -9.057203 7.125000 0.000000 0.000000 
3.325421 16.487449 9.552973 176.454135 -3.881849 -136.645705 -30.672603 -34.866256 -45.184694 17.612084 23.317851 86.264289 0.781664 -9.130560 -37.483283 1.986800 -8.838600 -25.291700 16.584511 46.224132 -68.154852 -5.737725 -11.919105 33.621002 -3.066352 6.146609 -47.365329 -0.680400 5.274100 -14.692100 19.266730 -7.107278 10.516553 -8.307488 -2.785772 11.082511 2.141743 -2.261080 29.278521 0.098200 0.051700 4.951600 -101.191495 -8.773466 32.302654 38.437996 -42.715208 -13.081869 0.117633 -0.118743 -2.829516 -7.125000 0.000000 0.000000 102.582860 -3.155740 14.273224 -31.522811 40.630253 -8.326699 0.489209 -3.899048 -9.082425 7.125000 0.000000 0.000000 
